<svg width="1562" height="1112" viewBox="0 0 1562 1112" fill="none" xmlns="http://www.w3.org/2000/svg">
<g clip-path="url(#clip0_221_27)">
<path d="M375.629 211.48C375.629 265.086 295.933 308.477 292.539 310.269C291.645 310.749 290.645 311 289.629 311C288.613 311 287.613 310.749 286.719 310.269C283.325 308.477 203.629 265.086 203.629 211.48C203.643 198.892 208.663 186.823 217.588 177.922C226.513 169.021 238.614 164.014 251.236 164C267.092 164 280.975 170.8 289.629 182.295C298.283 170.8 312.166 164 328.022 164C340.644 164.014 352.744 169.021 361.669 177.922C370.594 186.823 375.615 198.892 375.629 211.48Z" fill="#F04447"/>
<path d="M342.391 201.416C343.471 200.912 345.947 200.128 347.788 199.679C349.566 199.231 351.661 198.951 352.359 199.007C352.994 199.063 354.264 200.015 355.026 201.08C355.851 202.2 356.677 204.329 356.867 206.122C357.121 207.914 356.93 210.491 356.486 212.284C355.978 213.965 355.661 216.149 355.661 217.046C355.597 217.942 356.486 220.351 357.502 222.312C358.645 224.609 360.232 226.569 364.422 229.594L359.914 233.964C357.375 236.373 354.581 238.95 353.692 239.734C352.296 240.855 351.978 241.639 352.042 243.936C352.042 245.448 351.47 247.745 350.835 248.978C350.264 250.21 348.804 251.891 347.724 252.731C346.582 253.627 345.248 254.3 344.74 254.3C344.233 254.3 343.661 254.804 343.471 255.42C343.28 256.036 342.391 257.045 341.439 257.661C340.36 258.389 338.709 258.837 337.312 258.781C335.598 258.781 334.455 258.389 333.312 257.381C332.423 256.596 331.725 255.756 331.725 255.42C331.725 255.084 330.455 254.86 328.868 254.86C326.519 254.86 325.948 255.084 325.694 255.98C325.503 256.596 324.551 257.493 323.471 257.941C322.392 258.389 320.995 258.781 320.297 258.781C319.599 258.781 318.202 258.389 317.122 257.941C316.043 257.493 315.091 256.596 314.9 255.98C314.71 255.364 313.948 254.692 313.186 254.468C312.361 254.243 310.9 253.459 309.885 252.675C308.869 251.835 307.663 250.434 307.091 249.538C306.583 248.641 306.139 246.457 306.012 241.639L299.79 235.757C296.425 232.563 293.631 229.818 293.631 229.65C293.568 229.482 294.774 228.586 296.171 227.69C297.631 226.793 299.155 225.225 299.663 224.328C300.107 223.432 301.06 221.415 301.694 219.847C302.774 217.158 302.774 216.934 301.758 214.245C301.187 212.732 300.679 210.323 300.679 208.923C300.679 207.522 300.933 205.281 301.314 203.881C301.694 202.48 302.456 200.912 303.028 200.352C303.599 199.791 304.996 199.343 306.012 199.399C307.091 199.399 309.377 199.735 311.091 200.184C312.869 200.632 315.789 201.92 317.63 202.985C320.614 204.777 321.122 204.945 323.027 204.441C324.106 204.105 326.773 203.881 328.868 203.881C330.963 203.881 333.693 204.105 334.9 204.441C336.868 204.889 337.312 204.833 338.709 203.657C339.598 202.929 341.249 201.92 342.391 201.416Z" fill="#2E1007"/>
<path d="M335.281 248.809C334.9 246.624 335.027 246.4 336.678 245.952C337.63 245.672 338.9 245.392 339.471 245.392C340.36 245.336 340.487 245.784 340.233 248.529C340.043 250.322 339.471 252.226 339.027 252.731C338.519 253.291 337.63 253.627 337.122 253.459C336.614 253.291 336.043 252.731 335.916 252.17C335.725 251.666 335.472 250.154 335.281 248.809Z" fill="#FF94A7"/>
<path d="M318.202 250.826C317.948 249.818 317.758 248.137 317.758 247.129C317.758 245.672 318.012 245.336 319.218 245.336C319.98 245.336 321.123 245.616 321.821 246.008C322.837 246.624 322.964 247.185 322.583 249.537C322.329 251.05 321.948 252.563 321.694 252.787C321.44 253.067 320.678 253.123 319.98 252.955C319.218 252.787 318.52 251.946 318.202 250.826Z" fill="#FF94A7"/>
<path d="M340.932 208.194C342.011 207.074 344.424 205.561 346.328 204.777C348.233 203.993 350.138 203.432 350.455 203.488C350.836 203.601 351.153 205.393 351.28 207.41C351.344 209.651 351.153 211.163 350.773 211.163C350.455 211.163 350.011 210.715 349.82 210.155C349.63 209.651 349.503 208.922 349.566 208.642C349.63 208.306 349.63 207.746 349.566 207.354C349.566 207.018 348.995 206.682 348.423 206.682C347.788 206.626 346.836 207.018 346.328 207.522C345.82 208.026 345.122 208.418 344.741 208.362C344.424 208.362 343.662 208.922 343.154 209.707C342.265 210.995 342.328 211.163 344.424 212.732C345.63 213.628 347.535 215.869 348.677 217.662C349.757 219.454 351.407 222.704 352.36 224.888C353.249 227.017 354.137 229.202 354.328 229.65C354.518 230.098 353.693 231.555 352.55 232.843C351.407 234.132 350.074 235.084 349.693 234.916C349.249 234.804 349.058 234.356 349.312 233.964C349.566 233.628 348.042 234.636 345.947 236.261C343.725 238.053 340.805 239.734 338.709 240.406C336.805 241.022 333.376 241.695 331.091 241.863C328.742 241.975 325.44 241.807 323.472 241.414C321.567 241.022 318.583 240.014 316.806 239.174C315.091 238.277 312.361 236.373 310.774 234.86C309.187 233.347 307.536 231.611 307.092 230.995C306.393 230.042 306.393 230.154 306.774 231.891C307.092 233.46 307.028 233.796 306.266 233.516C305.758 233.347 304.806 232.507 304.108 231.667C303.028 230.434 302.965 229.986 303.663 229.09C304.044 228.474 305.187 226.121 306.076 223.88C306.965 221.695 308.361 218.838 309.187 217.606C309.949 216.373 311.726 214.413 313.06 213.236C315.091 211.499 315.409 210.995 314.837 210.155C314.456 209.651 313.06 208.642 311.663 207.97C309.758 207.018 308.996 206.906 308.361 207.41C307.917 207.802 307.536 208.586 307.536 209.203C307.6 209.819 307.282 210.715 306.901 211.163C306.393 211.78 306.33 211.275 306.584 209.203C306.838 207.242 306.774 206.738 306.33 207.522C305.885 208.362 305.822 208.138 305.949 206.402C306.076 204.721 306.457 204.105 307.346 203.993C307.98 203.881 309.822 204.329 311.409 204.889C312.996 205.505 315.028 206.57 315.917 207.298C316.806 208.026 317.631 208.979 317.821 209.427C318.012 210.155 318.52 210.155 321.25 209.427C323.028 208.979 326.583 208.642 329.186 208.698C331.789 208.698 335.091 209.035 336.487 209.427C339.027 210.155 339.027 210.155 340.932 208.194Z" fill="#FF94A7"/>
<path d="M328.548 236.254C324.738 236.254 320.612 230.092 319.659 230.932C319.977 229.251 322.834 224.77 328.548 224.77C334.579 224.77 337.436 229.158 337.436 230.932C336.801 229.905 332.992 236.254 328.548 236.254Z" fill="#EA7C90"/>
<ellipse cx="314.898" cy="226.73" rx="3.49193" ry="3.08114" fill="#2E1007"/>
<ellipse cx="342.516" cy="227.01" rx="3.17448" ry="2.80103" fill="#2E1007"/>
<ellipse cx="324.739" cy="230.371" rx="2.53959" ry="2.24083" fill="#2E1007"/>
<ellipse cx="332.993" cy="230.371" rx="2.53959" ry="2.24083" fill="#2E1007"/>
<path d="M349.5 219.167C349.5 222.416 347.785 221.969 344.103 221.969C340.421 221.969 337.437 219.335 337.437 216.086C337.437 212.838 340.739 212.725 344.42 212.725C347.912 215.806 349.182 218.607 349.5 219.167Z" fill="#EA7C8F"/>
<path d="M226.764 201.191C227.285 199.961 228.094 198.509 228.614 198.006V197.95C229.134 197.447 230.347 197 231.33 197C232.312 197 234.161 197.503 235.433 198.062C236.704 198.62 238.611 199.738 239.651 200.52C241.443 201.973 241.558 202.029 243.985 201.191C245.314 200.744 247.915 200.352 249.764 200.352C251.556 200.352 254.503 200.744 259.415 202.029L261.9 200.185C263.229 199.235 265.482 198.062 266.927 197.615C268.719 197.056 269.99 196.944 270.972 197.335C271.781 197.615 272.937 198.844 273.573 200.073C274.497 201.861 274.729 203.426 274.729 208.175C274.729 213.986 274.786 214.098 276.751 217.059C277.849 218.735 280.276 221.417 282.125 223.093C283.917 224.714 285.419 226.167 285.419 226.334C285.419 226.502 285.073 226.949 284.726 227.34C284.321 227.731 282.53 229.184 280.796 230.581C279.005 231.922 275.942 233.821 274.035 234.715C271.03 236.112 270.51 236.559 270.799 237.509C271.03 238.124 271.146 240.023 271.088 241.7C270.972 243.935 270.51 245.443 269.354 247.287C268.487 248.684 266.927 250.304 265.945 250.919C264.905 251.534 263.749 252.763 263.344 253.601C262.94 254.495 262.015 255.557 261.322 256.004C260.57 256.451 258.952 256.786 257.681 256.786C256.14 256.786 254.984 256.413 254.214 255.668C253.578 255.054 253.058 254.327 253.058 253.992C253.058 253.657 252.018 253.433 250.804 253.433C249.071 253.433 248.146 253.825 246.817 255.11C245.43 256.451 244.563 256.786 242.714 256.786C240.865 256.786 239.998 256.451 238.9 255.221C238.091 254.383 237.282 253.322 237.109 252.875C236.993 252.428 235.837 251.366 234.566 250.472C233.294 249.634 231.676 247.902 230.983 246.561C230.347 245.276 229.712 243.097 229.712 241.7C229.654 240.303 229.885 238.403 230.116 237.509C230.521 236.001 230.405 235.777 228.96 235.386C228.094 235.107 225.782 234.101 223.875 233.039C221.968 232.033 219.136 230.078 214.629 226.222L218.616 222.646C220.812 220.691 223.413 217.953 224.395 216.556C226.129 214.098 226.129 213.874 225.955 208.734C225.84 204.767 226.013 202.867 226.764 201.191Z" fill="#2E1007"/>
<path fill-rule="evenodd" clip-rule="evenodd" d="M240.691 238.012L246.759 238.459C250.053 238.738 253.694 238.738 254.792 238.515C255.89 238.291 257.508 238.124 258.432 238.068C259.473 238.068 259.896 238.31 259.704 238.794C259.53 239.13 259.646 239.465 259.993 239.465C260.339 239.465 260.513 241.476 260.397 244.605C260.282 249.466 260.224 249.802 258.837 250.472C258.028 250.863 257.219 250.975 256.988 250.751C256.699 250.528 256.352 249.355 256.179 248.125C256.005 246.896 255.774 245.332 255.601 244.661C255.37 243.488 255.138 243.376 252.307 243.711C250.458 243.935 248.782 243.823 247.973 243.432C246.99 242.929 246.528 242.985 245.835 243.655C245.314 244.158 244.968 245.499 244.968 246.896C244.968 248.181 244.679 249.69 244.274 250.249C243.87 250.863 243.003 251.198 242.367 251.087C241.674 250.975 241.038 250.249 240.691 248.963C240.402 247.902 240.171 245.89 240.171 244.494C240.171 243.097 240.287 241.085 240.402 240.024L240.691 238.012ZM264.731 237.174C265.309 237.174 266.06 237.789 266.349 238.571C266.696 239.353 266.754 240.638 266.523 241.476C266.292 242.259 265.945 242.985 265.772 243.097C265.656 243.153 265.078 241.867 264.616 240.191C263.749 237.342 263.749 237.174 264.731 237.174ZM235.722 237.174C236.126 237.174 236.184 238.291 236.011 240.135C235.779 241.756 235.49 243.32 235.317 243.6C235.144 243.935 234.797 243.823 234.508 243.32C234.277 242.873 234.046 241.923 234.104 241.253C234.104 240.582 234.335 239.409 234.624 238.627C234.913 237.844 235.433 237.174 235.722 237.174ZM249.302 204.823C250.284 204.823 252.596 205.046 254.503 205.381C256.41 205.717 259.53 206.722 261.437 207.56C263.344 208.398 265.945 210.131 267.216 211.36C268.488 212.589 270.452 215.159 271.55 217.115C272.648 219.126 274.266 221.473 275.133 222.367C276 223.317 276.751 224.379 276.751 224.77C276.751 225.273 276 225.217 273.457 224.546C271.608 224.043 268.545 222.702 266.638 221.529C264.731 220.356 262.535 219.238 261.726 219.015C260.86 218.791 259.588 219.015 258.432 219.518C257.392 220.02 256.41 220.97 256.179 221.697C256.005 222.367 256.005 223.429 256.179 224.043C256.352 224.658 257.97 226.669 259.819 228.457C262.535 231.084 262.998 231.81 262.304 232.201C261.842 232.48 260.166 232.704 258.548 232.704C256.988 232.704 254.618 232.872 253.347 232.983C252.076 233.151 251.44 233.151 251.902 232.983C252.422 232.872 253.116 232.089 253.52 231.307C253.925 230.581 254.214 229.351 254.214 228.681C254.214 227.508 254.098 227.563 252.769 229.24C252.018 230.245 250.978 231.028 250.458 231.028C249.995 231.028 248.955 230.413 248.146 229.631C247.395 228.904 246.586 228.513 246.412 228.793C246.297 229.128 246.528 230.022 246.99 230.748C247.51 231.531 247.684 232.201 247.453 232.201C247.221 232.201 247.51 232.48 248.146 232.76C248.897 233.095 247.684 233.151 244.679 232.927C242.136 232.76 239.651 232.369 239.073 232.089C238.207 231.642 238.438 231.195 241.212 228.234C243.696 225.664 244.39 224.49 244.448 223.094C244.448 222.032 243.985 220.859 243.407 220.3C242.83 219.741 241.5 219.182 240.345 219.015C238.669 218.735 237.744 219.071 234.566 221.026C232.543 222.367 229.249 223.876 227.342 224.435C225.435 224.993 223.817 225.329 223.76 225.161C223.702 225.049 224.337 223.932 225.262 222.814C226.187 221.641 227.862 219.182 228.96 217.338C230.058 215.495 232.139 212.868 233.526 211.472C234.913 210.131 237.34 208.343 238.9 207.616C240.518 206.834 243.119 205.94 244.679 205.549C246.297 205.158 248.377 204.878 249.302 204.823ZM240.518 221.641C241.443 221.753 241.789 222.2 241.789 223.205C241.789 224.267 241.5 224.658 240.518 224.77C239.709 224.826 239.073 224.546 238.842 223.932C238.669 223.373 238.669 222.591 238.9 222.2C239.073 221.808 239.825 221.529 240.518 221.641ZM260.975 221.529C261.38 221.529 261.9 221.92 262.015 222.367C262.189 222.87 262.189 223.596 262.015 224.043C261.9 224.546 261.206 224.882 260.571 224.882C259.935 224.882 259.299 224.546 259.126 224.043C259.01 223.596 259.126 222.87 259.53 222.367C259.877 221.92 260.513 221.529 260.975 221.529Z" fill="#DEDEDE"/>
<path d="M244.968 247.567L240.634 248.684C240.634 249.429 241.374 251.633 242.945 251.199C244.968 250.64 244.872 248.591 244.968 247.567Z" fill="#323232"/>
<path d="M248.435 227.284C248.089 226.614 248.147 225.943 248.782 225.105V225.049C249.244 224.379 249.938 223.82 250.342 223.82C250.747 223.764 251.383 224.099 251.787 224.49C252.192 224.881 252.423 225.831 252.365 226.614C252.249 227.675 251.845 228.066 250.574 228.122C249.591 228.234 248.84 227.955 248.435 227.284Z" fill="#2E1007"/>
<path d="M264.154 203.928C264.905 203.258 266.003 202.476 266.639 202.14C267.274 201.805 268.257 201.47 268.834 201.47C269.586 201.47 269.99 202.196 270.453 204.431C270.799 205.996 270.915 207.896 270.741 208.622C270.568 209.292 270.221 209.739 269.99 209.628C269.701 209.516 269.412 208.175 269.239 206.61C269.066 205.102 268.777 203.593 268.546 203.37C268.314 203.09 266.927 203.537 265.483 204.431C264.038 205.269 262.882 205.772 262.882 205.549C262.882 205.269 263.46 204.543 264.154 203.928Z" fill="#DEDEDE"/>
<path d="M230.174 205.828C230.348 204.096 230.694 202.42 230.868 202.085C231.041 201.749 231.388 201.47 231.677 201.47C232.023 201.47 233.237 201.917 234.393 202.532C235.606 203.09 236.993 203.984 237.455 204.487C237.918 204.99 238.149 205.549 237.86 205.661C237.629 205.828 236.415 205.325 235.144 204.543C233.873 203.761 232.659 203.258 232.37 203.37C232.139 203.481 231.792 204.99 231.503 206.722C231.214 208.901 230.868 209.739 230.405 209.46C230.001 209.125 229.885 208.007 230.174 205.828Z" fill="#DEDEDE"/>
<path fill-rule="evenodd" clip-rule="evenodd" d="M235.721 236.95C236.126 236.95 236.184 238.347 236.01 240.191C235.779 241.812 235.49 243.376 235.317 243.655C235.144 243.991 234.797 243.879 234.508 243.376C234.277 242.929 233.988 241.979 234.046 241.309C234.046 240.638 234.277 239.465 234.566 238.683C234.855 237.9 235.432 236.95 235.721 236.95ZM261.148 221.306C261.553 221.306 262.188 221.976 262.304 222.423C262.477 222.926 262.188 223.652 262.015 224.099C261.899 224.602 261.206 224.937 260.57 224.937C259.935 224.937 259.299 224.602 259.126 224.099C259.01 223.652 259.01 222.926 259.415 222.423C259.761 221.976 260.686 221.306 261.148 221.306Z" fill="#323232"/>
<path d="M276.751 224.937C276.173 225.776 272.417 224.379 270.684 223.541C271.55 221.864 272.767 218.909 273.284 219.909C273.862 221.026 277.329 224.099 276.751 224.937Z" fill="#323232"/>
<path d="M1561.63 1086C1531.67 1090.84 1485.51 1095.4 1438.63 1094.55M1340.63 1082.02C1320.6 1076.23 1303.27 1068.11 1290.63 1057C1234.63 1007.8 1063.3 1017.17 984.63 1028C849.63 1047.33 544.73 1074.4 405.13 1028C265.53 981.6 160.296 1047.33 125.13 1086C100.296 1126.33 43.5296 1200.3 15.1296 1173.5C-20.3704 1140 1.12961 867.5 138.63 691C248.63 549.8 289.629 382.5 289.629 311M1340.63 1082.02V986M1340.63 1082.02C1369.65 1090.42 1404.33 1093.93 1438.63 1094.55M1340.63 986H1438.63M1340.63 986L1389.63 942.5L1438.63 986M1438.63 986V1094.55" stroke="#FFE57C" stroke-width="3"/>
</g>
<defs>
<clipPath id="clip0_221_27">
<rect width="1562" height="1112" fill="white"/>
</clipPath>
</defs>
</svg>
