<svg id="eLhUa2gYDXd1" xmlns="http://www.w3.org/2000/svg" xmlns:xlink="http://www.w3.org/1999/xlink" viewBox="0 0 448 512" shape-rendering="geometricPrecision" text-rendering="geometricPrecision" project-id="c633418dad6e4590b8a5a950ece5f03c" export-id="ce3eb738afdf4205becbc827f0ff1a00" cached="false">
  <path d="M53.571429,72.178571c-7.366071,0-13.392857,6.026786-13.392857,13.392857v267.857143c0,7.366071,6.026786,13.392857,13.392857,13.392857h187.5v-66.964286c0-14.815848,11.969866-26.785714,26.785714-26.785714h66.964286v-187.5c0-7.366071-6.026786-13.392857-13.392857-13.392857h-267.857143ZM241.071429,407h-187.5C24.023438,407,0,382.976563,0,353.428571L0,85.571429C0,56.023437,24.023438,32,53.571429,32h267.857143C350.976563,32,375,56.023437,375,85.571429v187.5v4.603795c0,14.229911-5.608259,27.873884-15.652902,37.918527L283.59375,391.347098C273.549107,401.391741,259.905134,407,245.675223,407h-4.603795Z" transform="translate(36.5 36.5)" fill="#484848" />
</svg>