<svg width="172" height="91" viewBox="0 0 172 91" fill="none" xmlns="http://www.w3.org/2000/svg">
<g clip-path="url(#clip0_124_2)">
<path d="M172 47.4799C172 101.086 92.3041 144.477 88.9102 146.269C88.0156 146.749 87.0157 147 86 147C84.9842 147 83.9844 146.749 83.0898 146.269C79.6959 144.477 0 101.086 0 47.4799C0.0142264 34.8918 5.03453 22.8234 13.9595 13.9222C22.8845 5.02108 34.9853 0.0141884 47.6071 0C63.4634 0 77.3463 6.80035 86 18.2951C94.6537 6.80035 108.537 0 124.393 0C137.015 0.0141884 149.115 5.02108 158.04 13.9222C166.965 22.8234 171.986 34.8918 172 47.4799Z" fill="#F04447"/>
<path d="M138.762 37.416C139.842 36.9118 142.318 36.1275 144.159 35.6794C145.937 35.2312 148.032 34.9511 148.73 35.0071C149.365 35.0631 150.635 36.0155 151.397 37.0799C152.222 38.2003 153.048 40.3291 153.238 42.1217C153.492 43.9144 153.302 46.4913 152.857 48.284C152.349 49.9646 152.032 52.1494 152.032 53.0458C151.968 53.9421 152.857 56.351 153.873 58.3117C155.016 60.6086 156.603 62.5693 160.793 65.5944L156.286 69.964C153.746 72.3729 150.952 74.9498 150.064 75.7341C148.667 76.8545 148.349 77.6388 148.413 79.9357C148.413 81.4482 147.841 83.7451 147.207 84.9775C146.635 86.21 145.175 87.8906 144.096 88.7309C142.953 89.6273 141.619 90.2995 141.112 90.2995C140.604 90.2995 140.032 90.8037 139.842 91.4199C139.651 92.0362 138.762 93.0445 137.81 93.6608C136.731 94.389 135.08 94.8372 133.683 94.7812C131.969 94.7812 130.826 94.389 129.683 93.3806C128.795 92.5964 128.096 91.756 128.096 91.4199C128.096 91.0838 126.826 90.8597 125.239 90.8597C122.89 90.8597 122.319 91.0838 122.065 91.9801C121.874 92.5964 120.922 93.4927 119.843 93.9409C118.763 94.389 117.366 94.7812 116.668 94.7812C115.97 94.7812 114.573 94.389 113.494 93.9409C112.414 93.4927 111.462 92.5964 111.271 91.9801C111.081 91.3639 110.319 90.6917 109.557 90.4676C108.732 90.2435 107.272 89.4592 106.256 88.6749C105.24 87.8346 104.034 86.4341 103.462 85.5378C102.954 84.6414 102.51 82.4566 102.383 77.6388L96.1609 71.7567C92.7959 68.5635 90.0024 65.8185 90.0024 65.6504C89.9389 65.4824 91.1452 64.586 92.542 63.6897C94.0022 62.7934 95.526 61.2248 96.0339 60.3284C96.4783 59.4321 97.4307 57.4154 98.0656 55.8468C99.1449 53.1578 99.1449 52.9337 98.1291 50.2447C97.5577 48.7322 97.0497 46.3233 97.0497 44.9228C97.0497 43.5222 97.3037 41.2814 97.6846 39.8809C98.0656 38.4804 98.8275 36.9118 99.3989 36.3516C99.9703 35.7914 101.367 35.3432 102.383 35.3992C103.462 35.3992 105.748 35.7354 107.462 36.1835C109.24 36.6317 112.16 37.9202 114.001 38.9846C116.985 40.7772 117.493 40.9453 119.398 40.4411C120.477 40.105 123.144 39.8809 125.239 39.8809C127.334 39.8809 130.064 40.105 131.271 40.4411C133.239 40.8893 133.683 40.8333 135.08 39.6568C135.969 38.9286 137.62 37.9202 138.762 37.416Z" fill="#2E1007"/>
<path d="M131.652 84.8094C131.271 82.6246 131.398 82.4006 133.049 81.9524C134.001 81.6723 135.271 81.3922 135.842 81.3922C136.731 81.3362 136.858 81.7843 136.604 84.5293C136.414 86.322 135.842 88.2267 135.398 88.7309C134.89 89.2911 134.001 89.6272 133.493 89.4592C132.985 89.2911 132.414 88.7309 132.287 88.1707C132.096 87.6665 131.842 86.1539 131.652 84.8094Z" fill="#FF94A7"/>
<path d="M114.573 86.8262C114.319 85.8178 114.129 84.1372 114.129 83.1288C114.129 81.6723 114.383 81.3362 115.589 81.3362C116.351 81.3362 117.494 81.6163 118.192 82.0084C119.208 82.6246 119.335 83.1848 118.954 85.5377C118.7 87.0503 118.319 88.5628 118.065 88.7869C117.811 89.067 117.049 89.123 116.351 88.955C115.589 88.7869 114.891 87.9466 114.573 86.8262Z" fill="#FF94A7"/>
<path d="M137.302 44.1945C138.382 43.074 140.794 41.5615 142.699 40.7772C144.604 39.9929 146.508 39.4327 146.826 39.4887C147.207 39.6008 147.524 41.3934 147.651 43.4102C147.715 45.651 147.524 47.1636 147.143 47.1636C146.826 47.1636 146.381 46.7154 146.191 46.1552C146.001 45.651 145.874 44.9227 145.937 44.6426C146.001 44.3065 146.001 43.7463 145.937 43.3541C145.937 43.018 145.366 42.6819 144.794 42.6819C144.159 42.6259 143.207 43.018 142.699 43.5222C142.191 44.0264 141.493 44.4185 141.112 44.3625C140.794 44.3625 140.033 44.9227 139.525 45.707C138.636 46.9955 138.699 47.1636 140.794 48.7321C142.001 49.6285 143.905 51.8693 145.048 53.6619C146.128 55.4546 147.778 58.7038 148.731 60.8886C149.619 63.0174 150.508 65.2022 150.699 65.6504C150.889 66.0985 150.064 67.5551 148.921 68.8435C147.778 70.132 146.445 71.0844 146.064 70.9163C145.62 70.8043 145.429 70.3561 145.683 69.964C145.937 69.6278 144.413 70.6362 142.318 72.2608C140.096 74.0535 137.175 75.7341 135.08 76.4063C133.176 77.0226 129.747 77.6948 127.462 77.8629C125.112 77.9749 121.811 77.8069 119.843 77.4147C117.938 77.0226 114.954 76.0142 113.176 75.1739C111.462 74.2776 108.732 72.3729 107.145 70.8603C105.558 69.3477 103.907 67.6111 103.462 66.9949C102.764 66.0425 102.764 66.1546 103.145 67.8912C103.462 69.4598 103.399 69.7959 102.637 69.5158C102.129 69.3477 101.177 68.5074 100.478 67.6671C99.3992 66.4347 99.3357 65.9865 100.034 65.0902C100.415 64.4739 101.558 62.1211 102.447 59.8802C103.336 57.6954 104.732 54.8384 105.558 53.6059C106.32 52.3735 108.097 50.4128 109.431 49.2363C111.462 47.4997 111.78 46.9955 111.208 46.1552C110.827 45.651 109.431 44.6426 108.034 43.9704C106.129 43.018 105.367 42.906 104.732 43.4102C104.288 43.8023 103.907 44.5866 103.907 45.2028C103.97 45.8191 103.653 46.7154 103.272 47.1636C102.764 47.7798 102.701 47.2756 102.955 45.2028C103.209 43.2421 103.145 42.7379 102.701 43.5222C102.256 44.3625 102.193 44.1384 102.32 42.4018C102.447 40.7212 102.828 40.1049 103.716 39.9929C104.351 39.8809 106.193 40.329 107.78 40.8892C109.367 41.5055 111.399 42.5699 112.288 43.2981C113.176 44.0264 114.002 44.9787 114.192 45.4269C114.383 46.1552 114.891 46.1552 117.621 45.4269C119.398 44.9787 122.954 44.6426 125.557 44.6986C128.16 44.6986 131.461 45.0348 132.858 45.4269C135.398 46.1552 135.398 46.1552 137.302 44.1945Z" fill="#FF94A7"/>
<path d="M124.919 72.2539C121.11 72.2539 116.983 66.0916 116.031 66.9319C116.348 65.2513 119.205 60.7697 124.919 60.7697C130.951 60.7697 133.808 65.158 133.808 66.9319C133.173 65.9049 129.364 72.2539 124.919 72.2539Z" fill="#EA7C90"/>
<ellipse cx="111.269" cy="62.7301" rx="3.49193" ry="3.08114" fill="#2E1007"/>
<ellipse cx="138.887" cy="63.0105" rx="3.17448" ry="2.80103" fill="#2E1007"/>
<ellipse cx="121.11" cy="66.3717" rx="2.53959" ry="2.24083" fill="#2E1007"/>
<ellipse cx="129.364" cy="66.3717" rx="2.53959" ry="2.24083" fill="#2E1007"/>
<path d="M145.871 55.1675C145.871 58.4161 144.156 57.9685 140.474 57.9685C136.793 57.9685 133.808 55.335 133.808 52.0863C133.808 48.8377 137.11 48.7251 140.792 48.7251C144.284 51.8062 145.553 54.6073 145.871 55.1675Z" fill="#EA7C8F"/>
<path d="M23.1355 37.1906C23.6556 35.9614 24.4646 34.5086 24.9847 34.0057V33.9499C25.5048 33.447 26.7184 33 27.7008 33C28.6832 33 30.5324 33.5029 31.8037 34.0616C33.0751 34.6204 34.9821 35.7379 36.0223 36.5201C37.8137 37.9728 37.9293 38.0287 40.3564 37.1906C41.6855 36.7436 44.286 36.3525 46.1352 36.3525C47.9266 36.3525 50.8738 36.7436 55.7858 38.0287L58.2707 36.1849C59.5998 35.235 61.8536 34.0616 63.2983 33.6146C65.0897 33.0559 66.3611 32.9441 67.3435 33.3352C68.1525 33.6146 69.3083 34.8439 69.9439 36.0731C70.8685 37.8611 71.0997 39.4256 71.0997 44.1749C71.0997 49.9859 71.1575 50.0976 73.1223 53.059C74.2202 54.7352 76.6474 57.4172 78.4966 59.0935C80.288 60.7138 81.7905 62.1666 81.7905 62.3342C81.7905 62.5018 81.4438 62.9488 81.097 63.3399C80.6925 63.7311 78.9011 65.1838 77.1674 66.5807C75.376 67.9217 72.3132 69.8214 70.4062 70.7154C67.4012 72.1123 66.8812 72.5592 67.1701 73.5091C67.4012 74.1237 67.5168 76.0235 67.459 77.6997C67.3435 79.9347 66.8812 81.4433 65.7254 83.2872C64.8586 84.684 63.2983 86.3044 62.3159 86.919C61.2757 87.5337 60.1199 88.7629 59.7154 89.601C59.3109 90.495 58.3863 91.5566 57.6928 92.0036C56.9416 92.4506 55.3235 92.7859 54.0522 92.7859C52.5112 92.7859 51.3554 92.4134 50.5849 91.6684C49.9492 91.0538 49.4291 90.3274 49.4291 89.9921C49.4291 89.6569 48.3889 89.4334 47.1754 89.4334C45.4417 89.4334 44.5171 89.8245 43.188 91.1096C41.8011 92.4506 40.9343 92.7859 39.085 92.7859C37.2358 92.7859 36.369 92.4506 35.271 91.2214C34.462 90.3833 33.653 89.3216 33.4796 88.8746C33.364 88.4276 32.2083 87.366 30.9369 86.472C29.6656 85.6339 28.0475 83.9018 27.354 82.5608C26.7184 81.2757 26.0827 79.0966 26.0827 77.6997C26.0249 76.3028 26.2561 74.4031 26.4872 73.5091C26.8917 72.0005 26.7762 71.777 25.3315 71.3859C24.4646 71.1065 22.1531 70.1008 20.2461 69.0391C18.3391 68.0334 15.5075 66.0778 11 62.2224L14.9874 58.6465C17.1833 56.6909 19.7838 53.953 20.7662 52.5561C22.4998 50.0976 22.4998 49.8741 22.3265 44.7337C22.2109 40.7666 22.3843 38.8668 23.1355 37.1906Z" fill="#2E1007"/>
<path fill-rule="evenodd" clip-rule="evenodd" d="M37.0625 74.0118L43.1303 74.4588C46.4242 74.7382 50.0649 74.7382 51.1628 74.5147C52.2608 74.2912 53.8789 74.1236 54.8035 74.0677C55.8437 74.0677 56.2675 74.3098 56.0748 74.794C55.9015 75.1293 56.017 75.4645 56.3638 75.4645C56.7105 75.4645 56.8839 77.476 56.7683 80.605C56.6527 85.4661 56.5949 85.8014 55.208 86.4718C54.399 86.863 53.5899 86.9747 53.3588 86.7512C53.0699 86.5277 52.7231 85.3544 52.5498 84.1251C52.3764 82.8959 52.1452 81.3314 51.9719 80.6609C51.7407 79.4875 51.5096 79.3758 48.678 79.711C46.8287 79.9345 45.1529 79.8228 44.3438 79.4316C43.3614 78.9288 42.8991 78.9846 42.2057 79.6551C41.6856 80.158 41.3389 81.499 41.3389 82.8959C41.3389 84.181 41.0499 85.6896 40.6454 86.2484C40.2409 86.863 39.3741 87.1982 38.7384 87.0865C38.0449 86.9747 37.4093 86.2483 37.0625 84.9632C36.7736 83.9016 36.5424 81.8901 36.5424 80.4933C36.5424 79.0964 36.658 77.0849 36.7736 76.0233L37.0625 74.0118ZM61.1024 73.1737C61.6803 73.1737 62.4315 73.7883 62.7205 74.5705C63.0672 75.3528 63.125 76.6379 62.8938 77.476C62.6627 78.2583 62.316 78.9846 62.1426 79.0964C62.027 79.1523 61.4491 77.8672 60.9868 76.1909C60.12 73.3413 60.12 73.1737 61.1024 73.1737ZM32.0927 73.1737C32.4973 73.1737 32.5551 74.2912 32.3817 76.135C32.1505 77.7554 31.8616 79.3199 31.6882 79.5993C31.5149 79.9345 31.1681 79.8228 30.8792 79.3199C30.648 78.8729 30.4169 77.923 30.4747 77.2525C30.4747 76.582 30.7058 75.4087 30.9948 74.6264C31.2837 73.8442 31.8038 73.1737 32.0927 73.1737ZM45.673 40.8223C46.6554 40.8223 48.9669 41.0458 50.8739 41.381C52.7809 41.7163 55.9015 42.722 57.8085 43.5601C59.7155 44.3982 62.316 46.1304 63.5873 47.3596C64.8586 48.5888 66.8234 51.1591 67.9214 53.1147C69.0194 55.1262 70.6375 57.4729 71.5043 58.3669C72.3711 59.3168 73.1223 60.3784 73.1223 60.7695C73.1223 61.2724 72.3711 61.2165 69.8284 60.546C67.9792 60.0431 64.9164 58.7022 63.0094 57.5288C61.1024 56.3554 58.9065 55.2379 58.0974 55.0144C57.2306 54.7909 55.9593 55.0144 54.8035 55.5173C53.7633 56.0202 52.7809 56.97 52.5498 57.6964C52.3764 58.3669 52.3764 59.4285 52.5498 60.0431C52.7231 60.6578 54.3412 62.6693 56.1904 64.4572C58.9065 67.0833 59.3688 67.8097 58.6753 68.2008C58.213 68.4802 56.5371 68.7037 54.9191 68.7037C53.3588 68.7037 50.9895 68.8713 49.7181 68.9831C48.4468 69.1507 47.8111 69.1507 48.2734 68.9831C48.7935 68.8713 49.487 68.0891 49.8915 67.3068C50.296 66.5805 50.585 65.3512 50.585 64.6807C50.585 63.5074 50.4694 63.5632 49.1403 65.2395C48.389 66.2452 47.3488 67.0275 46.8287 67.0275C46.3664 67.0275 45.3262 66.4129 44.5172 65.6306C43.766 64.9042 42.9569 64.5131 42.7836 64.7925C42.668 65.1277 42.8991 66.0217 43.3614 66.7481C43.8815 67.5303 44.0549 68.2008 43.8237 68.2008C43.5926 68.2008 43.8815 68.4802 44.5172 68.7596C45.2684 69.0948 44.0549 69.1507 41.0499 68.9272C38.5072 68.7596 36.0223 68.3685 35.4445 68.0891C34.5776 67.6421 34.8088 67.1951 37.5826 64.2337C40.0675 61.6635 40.761 60.4901 40.8188 59.0933C40.8188 58.0317 40.3565 56.8583 39.7786 56.2995C39.2007 55.7408 37.8716 55.182 36.7158 55.0144C35.0399 54.7351 34.1153 55.0703 30.937 57.0259C28.9144 58.3669 25.6205 59.8755 23.7135 60.4343C21.8065 60.993 20.1884 61.3283 20.1306 61.1606C20.0728 61.0489 20.7085 59.9314 21.6331 58.8139C22.5577 57.6405 24.2336 55.182 25.3315 53.3382C26.4295 51.4943 28.5099 48.8682 29.8968 47.4713C31.2837 46.1304 33.7108 44.3424 35.2711 43.616C36.8892 42.8338 39.4896 41.9398 41.0499 41.5486C42.668 41.1575 44.7484 40.8781 45.673 40.8223ZM36.8892 57.6405C37.8138 57.7523 38.1605 58.1993 38.1605 59.205C38.1605 60.2666 37.8716 60.6578 36.8892 60.7695C36.0801 60.8254 35.4445 60.546 35.2133 59.9314C35.0399 59.3726 35.0399 58.5904 35.2711 58.1993C35.4445 57.8082 36.1957 57.5288 36.8892 57.6405ZM57.3462 57.5288C57.7507 57.5288 58.2708 57.9199 58.3864 58.3669C58.5597 58.8698 58.5597 59.5961 58.3864 60.0431C58.2708 60.546 57.5773 60.8813 56.9417 60.8813C56.306 60.8813 55.6703 60.546 55.497 60.0431C55.3814 59.5961 55.497 58.8698 55.9015 58.3669C56.2482 57.9199 56.8839 57.5288 57.3462 57.5288Z" fill="#DEDEDE"/>
<path d="M41.3388 83.5664L37.0046 84.6839C37.0046 85.4289 37.7446 87.6324 39.3162 87.1983C41.3388 86.6395 41.2424 84.5908 41.3388 83.5664Z" fill="#323232"/>
<path d="M44.8061 63.2838C44.4593 62.6133 44.5171 61.9428 45.1528 61.1047V61.0488C45.6151 60.3783 46.3086 59.8196 46.7131 59.8196C47.1176 59.7637 47.7533 60.099 48.1578 60.4901C48.5623 60.8812 48.7934 61.8311 48.7357 62.6133C48.6201 63.6749 48.2156 64.0661 46.9442 64.1219C45.9618 64.2337 45.2106 63.9543 44.8061 63.2838Z" fill="#2E1007"/>
<path d="M60.5245 39.9282C61.2757 39.2577 62.3737 38.4755 63.0094 38.1402C63.645 37.805 64.6274 37.4697 65.2053 37.4697C65.9566 37.4697 66.3611 38.1961 66.8234 40.4311C67.1701 41.9956 67.2857 43.8953 67.1123 44.6217C66.939 45.2922 66.5922 45.7392 66.3611 45.6274C66.0721 45.5157 65.7832 44.1747 65.6098 42.6102C65.4365 41.1016 65.1475 39.593 64.9164 39.3695C64.6852 39.0901 63.2983 39.5371 61.8536 40.4311C60.4089 41.2692 59.2531 41.7721 59.2531 41.5486C59.2531 41.2692 59.831 40.5428 60.5245 39.9282Z" fill="#DEDEDE"/>
<path d="M26.545 41.8279C26.7184 40.0958 27.0651 38.4196 27.2385 38.0843C27.4118 37.7491 27.7586 37.4697 28.0475 37.4697C28.3942 37.4697 29.6078 37.9167 30.7636 38.5313C31.9771 39.0901 33.364 39.9841 33.8263 40.487C34.2886 40.9898 34.5198 41.5486 34.2309 41.6603C33.9997 41.8279 32.7861 41.3251 31.5148 40.5428C30.2435 39.7606 29.0299 39.2577 28.741 39.3695C28.5098 39.4812 28.1631 40.9898 27.8742 42.7219C27.5852 44.9011 27.2385 45.7392 26.7762 45.4598C26.3717 45.1246 26.2561 44.0071 26.545 41.8279Z" fill="#DEDEDE"/>
<path fill-rule="evenodd" clip-rule="evenodd" d="M32.0927 72.9502C32.4973 72.9502 32.5551 74.347 32.3817 76.1909C32.1505 77.8113 31.8616 79.3758 31.6882 79.6551C31.5149 79.9904 31.1681 79.8786 30.8792 79.3758C30.6481 78.9288 30.3591 77.9789 30.4169 77.3084C30.4169 76.6379 30.648 75.4645 30.937 74.6823C31.2259 73.9001 31.8038 72.9502 32.0927 72.9502ZM57.5195 57.3053C57.9241 57.3053 58.5597 57.9758 58.6753 58.4228C58.8487 58.9257 58.5597 59.652 58.3864 60.099C58.2708 60.6019 57.5773 60.9371 56.9417 60.9371C56.306 60.9371 55.6703 60.6019 55.497 60.099C55.3814 59.652 55.3814 58.9257 55.7859 58.4228C56.1326 57.9758 57.0572 57.3053 57.5195 57.3053Z" fill="#323232"/>
<path d="M73.1222 60.9374C72.5443 61.7755 68.7881 60.3786 67.0544 59.5405C67.9213 57.8643 69.138 54.9091 69.6549 55.9087C70.2328 57.0262 73.7001 60.0993 73.1222 60.9374Z" fill="#323232"/>
</g>
<defs>
<clipPath id="clip0_124_2">
<rect width="172" height="91" fill="white"/>
</clipPath>
</defs>
</svg>
